<svg width="43" height="20" viewBox="0 0 43 20" fill="none" xmlns="http://www.w3.org/2000/svg">
<path d="M5.50694 16.1231C8.12573 16.1231 9.66164 13.996 9.66164 10.2889C9.66164 6.6093 8.10915 4.47118 5.50694 4.47118C2.91026 4.47118 1.35777 6.60378 1.35777 10.2889C1.35225 13.996 2.89368 16.1231 5.50694 16.1231ZM5.50694 14.6425C3.98208 14.6425 3.06495 13.1121 3.07048 10.2889C3.07048 7.47118 3.99313 5.93527 5.50694 5.93527C7.02628 5.93527 7.94893 7.47118 7.94893 10.2889C7.94893 13.1121 7.03733 14.6425 5.50694 14.6425ZM15.3433 4.47118C12.8792 4.45461 11.277 6.14522 11.277 8.30544C11.277 10.4657 12.9013 12.0181 14.9289 12.0181C16.1499 12.0181 17.2107 11.4436 17.8239 10.4822H17.9621C17.951 13.0679 16.9234 14.5927 15.183 14.5927C14.0394 14.5927 13.3101 13.9242 13.0726 12.9739H11.3764C11.6416 14.8082 13.1002 16.0955 15.183 16.0955C17.8958 16.0955 19.6029 13.8469 19.6029 9.88002C19.5974 5.73638 17.4151 4.48776 15.3433 4.47118ZM15.3433 5.91317C16.7245 5.91317 17.73 7.02919 17.73 8.25571C17.73 9.50433 16.6692 10.6204 15.3101 10.6204C13.9344 10.6204 12.9565 9.5872 12.951 8.27781C12.94 6.97394 13.9731 5.91317 15.3433 5.91317ZM22.5275 8.8745C23.1242 8.8745 23.6325 8.37726 23.6325 7.764C23.6325 7.16179 23.1242 6.66455 22.5275 6.66455C21.9142 6.66455 21.4059 7.16179 21.417 7.764C21.4059 8.37726 21.9142 8.8745 22.5275 8.8745ZM22.5275 14.5375C23.1242 14.5375 23.6325 14.0402 23.6325 13.427C23.6325 12.8192 23.1242 12.322 22.5275 12.322C21.9142 12.322 21.4059 12.8192 21.417 13.427C21.4059 14.0402 21.9142 14.5375 22.5275 14.5375ZM32.5197 12.2778V4.62588H30.3871L25.3926 12.3441V13.7309H30.8788V15.9408H32.5197V13.7309H34.0556V12.2778H32.5197ZM30.7683 6.67008H30.8899V12.2778H27.1938V12.1894L30.7683 6.67008ZM38.249 4.62588L35.4368 6.47118V8.11207L38.1385 6.34964H38.2048V15.9408H39.9286V4.62588H38.249Z" fill="black"/>
</svg>
