<svg width="74" height="13" viewBox="0 0 74 13" fill="none" xmlns="http://www.w3.org/2000/svg">
<rect x="0.190918" y="7.90082" width="3.3323" height="4.32767" rx="1" fill="black"/>
<rect x="5.16406" y="5.90704" width="3.3323" height="6.32145" rx="1" fill="black"/>
<rect x="10.2017" y="3.24194" width="3.3323" height="8.98656" rx="1" fill="black"/>
<rect x="15.1753" y="0.569946" width="3.3323" height="11.6585" rx="1" fill="black"/>
<path d="M30.8183 9.43666C30.637 9.60769 30.6493 9.8907 30.8191 10.0731L32.6797 12.0716C32.8774 12.2839 33.2138 12.2839 33.4116 12.0715L35.2716 10.0736C35.4415 9.89125 35.4537 9.60831 35.2725 9.43726C34.6913 8.88863 33.9075 8.55231 33.0451 8.55231C32.1831 8.55231 31.3995 8.88838 30.8183 9.43666Z" fill="black"/>
<path d="M36.1554 8.31689C36.3756 8.5137 36.7181 8.5202 36.9193 8.30407L38.0595 7.07936C38.2395 6.88601 38.2392 6.58456 38.0456 6.4049C36.7334 5.18779 34.9764 4.44366 33.0455 4.44366C31.1148 4.44366 29.3578 5.18767 28.0457 6.40462C27.852 6.58427 27.8517 6.88574 28.0318 7.07909L29.1722 8.30403C29.3734 8.52016 29.7159 8.51366 29.9361 8.31685C30.7616 7.57888 31.8513 7.13023 33.0457 7.13023C34.2402 7.13023 35.3299 7.57889 36.1554 8.31689Z" fill="black"/>
<path d="M39.0415 5.25262C39.2525 5.44597 39.5823 5.4437 39.7773 5.23425L40.8563 4.07539C41.0392 3.87892 41.0351 3.57218 40.8382 3.38966C38.793 1.49322 36.0546 0.333832 33.0454 0.333832C30.0364 0.333832 27.2982 1.49309 25.253 3.38935C25.0561 3.57187 25.052 3.87862 25.2349 4.07509L26.3144 5.2345C26.5094 5.44395 26.8393 5.44622 27.0502 5.25285C28.6296 3.8052 30.7346 2.92175 33.046 2.92175C35.3572 2.92175 37.4621 3.80511 39.0415 5.25262Z" fill="black"/>
<path fill-rule="evenodd" clip-rule="evenodd" d="M50.5837 0.20871C48.9269 0.20871 47.5837 1.55186 47.5837 3.20871V9.58975C47.5837 11.2466 48.9269 12.5898 50.5837 12.5898H68.4925C70.1493 12.5898 71.4925 11.2466 71.4925 9.58975V3.20871C71.4925 1.55186 70.1493 0.20871 68.4925 0.20871H50.5837ZM50.8957 1.23192C49.5702 1.23192 48.4957 2.30643 48.4957 3.63192V9.18158C48.4957 10.5071 49.5702 11.5816 50.8956 11.5816H68.1568C69.4823 11.5816 70.5568 10.5071 70.5568 9.18158V3.63192C70.5568 2.30644 69.4823 1.23192 68.1568 1.23192H50.8957Z" fill="black" fill-opacity="0.35"/>
<rect x="49.5403" y="2.23056" width="19.9971" height="8.43191" rx="1.7" fill="black"/>
<path fill-rule="evenodd" clip-rule="evenodd" d="M72.5984 8.56177V4.23669C73.4065 4.621 73.9651 5.44488 73.9651 6.39923C73.9651 7.35359 73.4065 8.17747 72.5984 8.56177Z" fill="black" fill-opacity="0.45"/>
</svg>
